<svg version="1.1" preserveAspectRatio="none" xmlns="http://www.w3.org/2000/svg" width="500" height="500" viewBox="0 0 500 500"><rect width="100%" height="100%" fill="#101010" fill-opacity="1"/><svg viewBox="144.1139 586.6012 390.4867 130.4" width="333" height="111.20276311587565" x="83.5px" y="194.3986px" xmlns="http://www.w3.org/2000/svg" xmlns:xlink="http://www.w3.org/1999/xlink" preserveAspectRatio="none"><defs></defs><style>.aRWrrEA-PR0filter-floo {flood-color:#E9B0D6;flood-opacity:0.5;}.ashadowKAHWCXlsFr-floo {flood-color:#434BE7;flood-opacity:1;}.ashadown8knpPdgS0-floo {flood-color:#434BE7;flood-opacity:0.89;}.compantTranparent {fill:#F55139;fill-opacity:0;}.companyName-str {stroke:#FFFFFF;stroke-opacity:1;}.icon3-str {stroke:#253EE7;stroke-opacity:1;}.shape {fill:#253EE7;fill-opacity:1;}.shapeStroke-str {stroke:#F3F3F3;stroke-opacity:1;}.text {fill:#F3F3F3;fill-opacity:1;}</style><defs>
      <filter
        x="149.1124"
        y="591.6012"
        width="385.4882"
        height="80"
        id="ikYEXSHZT"
        filterUnits="userSpaceOnUse"
        primitiveUnits="userSpaceOnUse"
        color-interpolation-filters="sRGB">
        <feMerge><feMergeNode in="SourceGraphic" /></feMerge>
      </filter>
      <filter
        x="144.1139"
        y="586.6012"
        width="385.4852"
        height="80"
        id="tUk6sjh6M"
        filterUnits="userSpaceOnUse"
        primitiveUnits="userSpaceOnUse"
        color-interpolation-filters="sRGB">
        <feMerge><feMergeNode in="SourceGraphic" /></feMerge>
      </filter></defs><g opacity="1" transform="rotate(0 187.3601 694.6012)">
<svg width="298.9928" height="22.4" x="187.3601" y="694.6012" version="1.1" preserveAspectRatio="none" viewBox="0.6 -26.8 361.96 27.12">
  <g transform="matrix(1 0 0 1 0 0)" class="text"><path id="id-6izo4zJp13" d="M15.08-26.48L18.08-26.48L18.08-8.76Q18.08-4.92 16.16-2.48L16.16-2.48Q13.92 0.32 9.44 0.32L9.44 0.32Q5.40 0.32 3-2L3-2Q0.88-4.12 0.60-7.08L0.60-7.08L3.72-7.08Q4-5.32 5.36-4.08L5.36-4.08Q6.96-2.60 9.60-2.60L9.60-2.60Q12.80-2.60 14.16-4.72L14.16-4.72Q15.08-6.20 15.08-8.88L15.08-8.88L15.08-26.48Z M47.80-23.60L31.32-23.60L31.32-14.72L46.04-14.72L46.04-11.80L31.32-11.80L31.32-2.88L47.80-2.88L47.80 0L28.32 0L28.32-26.48L47.80-26.48L47.80-23.60Z M72.56-22.24L65.40 0L62.00 0L53.76-26.48L56.92-26.48L63.72-4.24L70.84-26.48L74.28-26.48L81.40-4.24L88.20-26.48L91.36-26.48L83.12 0L79.72 0L72.56-22.24Z M118.44-23.60L101.96-23.60L101.96-14.72L116.68-14.72L116.68-11.80L101.96-11.80L101.96-2.88L118.44-2.88L118.44 0L98.96 0L98.96-26.48L118.44-26.48L118.44-23.60Z M127.28-26.48L130.28-26.48L130.28-2.88L144.72-2.88L144.72 0L127.28 0L127.28-26.48Z M155.60-10.16L155.60 0L152.60 0L152.60-26.48L165.28-26.48Q169.32-26.48 171.76-24.24L171.76-24.24Q174.20-22.04 174.20-18.20L174.20-18.20Q174.20-13.24 170.08-11.44L170.08-11.44Q168.92-10.92 167.80-10.68L167.80-10.68L174.76 0L171.20 0L164.80-10.16L155.60-10.16ZM155.60-23.64L155.60-13L164.76-13Q169-13 170.60-15.64L170.60-15.64Q171.20-16.64 171.20-18.20L171.20-18.20Q171.20-20.72 169.48-22.18Q167.76-23.64 164.92-23.64L164.92-23.64L155.60-23.64Z M193.64-10.48L193.64 0L190.64 0L190.64-10.48L179.52-26.48L183.16-26.48L192.12-13.60L201.08-26.48L204.72-26.48L193.64-10.48Z M227.52-22.42Q226.76-21.76 226.50-20.96Q226.24-20.16 226.24-19.26Q226.24-18.36 227.02-17.60Q227.80-16.84 229.08-16.32Q230.36-15.80 232.00-15.40Q233.64-15 235.34-14.58Q237.04-14.16 238.68-13.62Q240.32-13.08 241.60-12.24L241.60-12.24Q244.44-10.44 244.44-7.32L244.44-7.32Q244.44-3.60 241.66-1.64Q238.88 0.32 233.96 0.32L233.96 0.32Q228.40 0.32 225.48-2L225.48-2Q222.88-4.08 222.52-7.92L222.52-7.92L225.64-7.92Q225.80-5.20 228.28-3.76L228.28-3.76Q230.44-2.52 234.00-2.52L234.00-2.52Q241.44-2.52 241.44-7.20L241.44-7.20Q241.44-8.80 240.10-9.72Q238.76-10.64 236.74-11.24Q234.72-11.84 232.38-12.36Q230.04-12.88 228.02-13.70Q226.00-14.52 224.66-15.86Q223.32-17.20 223.32-19.48L223.32-19.48Q223.32-22.72 225.80-24.76Q228.28-26.80 233.28-26.80L233.28-26.80Q238.32-26.80 241.08-24.48L241.08-24.48Q243.60-22.44 243.76-19.24L243.76-19.24L240.68-19.24Q240.28-22.52 236.44-23.60L236.44-23.60Q235.08-24 233.06-24Q231.04-24 229.66-23.54Q228.28-23.08 227.52-22.42Z M271.64-26.48L271.64-23.60L262.40-23.60L262.40 0L259.40 0L259.40-23.60L250.16-23.60L250.16-26.48L271.64-26.48Z M290.08-26.80L290.08-26.80Q296-26.80 299.80-22.84L299.80-22.84Q303.52-19 303.52-13.24Q303.52-7.48 299.80-3.64L299.80-3.64Q296 0.32 290.08 0.32L290.08 0.32Q284.16 0.32 280.36-3.64L280.36-3.64Q276.64-7.48 276.64-13.24Q276.64-19 280.36-22.84L280.36-22.84Q284.16-26.80 290.08-26.80ZM290.08-2.60L290.08-2.60Q294.80-2.60 297.72-5.68L297.72-5.68Q300.52-8.64 300.52-13.24L300.52-13.24Q300.52-17.84 297.72-20.80L297.72-20.80Q294.80-23.88 290.08-23.88L290.08-23.88Q285.36-23.88 282.44-20.80L282.44-20.80Q279.64-17.84 279.64-13.24L279.64-13.24Q279.64-8.64 282.44-5.68L282.44-5.68Q285.36-2.60 290.08-2.60Z M315.32-10.16L315.32 0L312.32 0L312.32-26.48L325-26.48Q329.04-26.48 331.48-24.24L331.48-24.24Q333.92-22.04 333.92-18.20L333.92-18.20Q333.92-13.24 329.80-11.44L329.80-11.44Q328.64-10.92 327.52-10.68L327.52-10.68L334.48 0L330.92 0L324.52-10.16L315.32-10.16ZM315.32-23.64L315.32-13L324.48-13Q328.72-13 330.32-15.64L330.32-15.64Q330.92-16.64 330.92-18.20L330.92-18.20Q330.92-20.72 329.20-22.18Q327.48-23.64 324.64-23.64L324.64-23.64L315.32-23.64Z M362.56-23.60L346.08-23.60L346.08-14.72L360.80-14.72L360.80-11.80L346.08-11.80L346.08-2.88L362.56-2.88L362.56 0L343.08 0L343.08-26.48L362.56-26.48L362.56-23.60Z"/></g>
</svg>
</g><g opacity="1" transform="rotate(0 149.1124 591.6012)">
<svg width="385.4882" height="80" x="149.1124" y="591.6012" version="1.1" preserveAspectRatio="none" viewBox="-0.56 -28 134.92000000000002 28">
  <g transform="matrix(1 0 0 1 0 0)" class="shape"><path id="id-BEGfasMba5" d="M23.76 0L21.56-5.44L9.72-5.44L7.52 0L-0.56 0L11.80-28L19.60-28L32 0L23.76 0ZM12.04-11.28L19.24-11.28L15.64-20.24L12.04-11.28Z M34.24 0L34.24-28L42.16-28L42.16 0L34.24 0Z M47.80 0L47.80-28L61.04-28Q65.64-28 69.20-26.28Q72.76-24.56 74.72-21.40Q76.68-18.24 76.68-14L76.68-14Q76.68-9.76 74.72-6.60Q72.76-3.44 69.20-1.72Q65.64 0 61.04 0L61.04 0L47.80 0ZM55.72-6.32L60.72-6.32Q64.32-6.32 66.50-8.36Q68.68-10.40 68.68-14L68.68-14Q68.68-17.60 66.50-19.64Q64.32-21.68 60.72-21.68L60.72-21.68L55.72-21.68L55.72-6.32Z M88.68-6.12L103.32-6.12L103.32 0L80.84 0L80.84-28L102.80-28L102.80-21.88L88.68-21.88L88.68-17.16L101.12-17.16L101.12-11.24L88.68-11.24L88.68-6.12Z M126.60-28L134.36-28L134.36 0L127.84 0L115.48-14.92L115.48 0L107.72 0L107.72-28L114.24-28L126.60-13.08L126.60-28Z"/></g>
</svg>
</g><g opacity="1" transform="rotate(0 144.1139 586.6012)">
<svg width="385.4852" height="80" x="144.1139" y="586.6012" version="1.1" preserveAspectRatio="none" viewBox="-0.56 -28 134.92000000000002 28">
  <g transform="matrix(1 0 0 1 0 0)" class="compantTranparent"><defs><path id="id-D6z1nYkh5" d="M23.76 0L21.56-5.44L9.72-5.44L7.52 0L-0.56 0L11.80-28L19.60-28L32 0L23.76 0ZM12.04-11.28L19.24-11.28L15.64-20.24L12.04-11.28Z M34.24 0L34.24-28L42.16-28L42.16 0L34.24 0Z M47.80 0L47.80-28L61.04-28Q65.64-28 69.20-26.28Q72.76-24.56 74.72-21.40Q76.68-18.24 76.68-14L76.68-14Q76.68-9.76 74.72-6.60Q72.76-3.44 69.20-1.72Q65.64 0 61.04 0L61.04 0L47.80 0ZM55.72-6.32L60.72-6.32Q64.32-6.32 66.50-8.36Q68.68-10.40 68.68-14L68.68-14Q68.68-17.60 66.50-19.64Q64.32-21.68 60.72-21.68L60.72-21.68L55.72-21.68L55.72-6.32Z M88.68-6.12L103.32-6.12L103.32 0L80.84 0L80.84-28L102.80-28L102.80-21.88L88.68-21.88L88.68-17.16L101.12-17.16L101.12-11.24L88.68-11.24L88.68-6.12Z M126.60-28L134.36-28L134.36 0L127.84 0L115.48-14.92L115.48 0L107.72 0L107.72-28L114.24-28L126.60-13.08L126.60-28Z"/></defs>
  <clipPath id="id-D6z1nYkh5-clip"><use xlink:href="#id-D6z1nYkh5" /></clipPath>
  <g clip-path="url(#id-D6z1nYkh5-clip)"><use xlink:href="#id-D6z1nYkh5" class="companyName-str" style="stroke-width:2;"/></g>
  </g>
</svg>
</g></svg></svg>