<svg version="1.1" preserveAspectRatio="none" xmlns="http://www.w3.org/2000/svg" width="500" height="500" viewBox="0 0 500 500"><rect width="100%" height="100%" fill="#FFFFFF" fill-opacity="1"/><svg viewBox="533.833 355.502 373.3002 303.8537" width="333" height="271.05070423214346" x="83.5px" y="114.4746px" xmlns="http://www.w3.org/2000/svg" xmlns:xlink="http://www.w3.org/1999/xlink" preserveAspectRatio="none"><defs></defs><style>.companyName {fill:#0000FF;fill-opacity:1;}.icon1 {fill:#0000FF;fill-opacity:1;}.icon2 {fill:#A9FF94;fill-opacity:1;}.icon3 {fill:#000084;fill-opacity:1;}.icon3-str {stroke:#000084;stroke-opacity:1;}.text {fill:#0000FF;fill-opacity:1;}</style><g opacity="1" transform="rotate(0 559.3003 634.1557)">
<svg width="322.3656" height="25.2" x="559.3003" y="634.1557" version="1.1" preserveAspectRatio="none" viewBox="-0.36 -28.32 366.32 28.64">
  <g transform="matrix(1 0 0 1 0 0)" class="text"><path id="id-6izo4zJp13" d="M7.80 0.32Q5.28 0.32 3.12-0.74Q0.96-1.80-0.36-3.72L-0.36-3.72L1.96-6.44Q4.28-3.12 7.80-3.12L7.80-3.12Q10.16-3.12 11.38-4.56Q12.60-6 12.60-8.80L12.60-8.80L12.60-24.52L2.48-24.52L2.48-28L16.56-28L16.56-9Q16.56-4.36 14.34-2.02Q12.12 0.32 7.80 0.32L7.80 0.32Z M30.72-3.48L47.04-3.48L47.04 0L26.72 0L26.72-28L46.48-28L46.48-24.52L30.72-24.52L30.72-15.92L44.76-15.92L44.76-12.52L30.72-12.52L30.72-3.48Z M90.88-28L94.68-28L85.32 0L81.12 0L73.48-22.36L65.84 0L61.56 0L52.20-28L56.32-28L63.88-5.24L71.76-28L75.44-28L83.16-5.12L90.88-28Z M105.56-3.48L121.88-3.48L121.88 0L101.56 0L101.56-28L121.32-28L121.32-24.52L105.56-24.52L105.56-15.92L119.60-15.92L119.60-12.52L105.56-12.52L105.56-3.48Z M130.36 0L130.36-28L134.36-28L134.36-3.48L149.52-3.48L149.52 0L130.36 0Z M179.20 0L174.84 0L168.80-8.60Q167.68-8.52 167.04-8.52L167.04-8.52L160.12-8.52L160.12 0L156.12 0L156.12-28L167.04-28Q172.48-28 175.60-25.40Q178.72-22.80 178.72-18.24L178.72-18.24Q178.72-15 177.12-12.72Q175.52-10.44 172.56-9.40L172.56-9.40L179.20 0ZM166.92-11.92Q170.72-11.92 172.72-13.56Q174.72-15.20 174.72-18.24L174.72-18.24Q174.72-21.28 172.72-22.90Q170.72-24.52 166.92-24.52L166.92-24.52L160.12-24.52L160.12-11.92L166.92-11.92Z M208.64-28L197.52-9.68L197.52 0L193.56 0L193.56-9.76L182.44-28L186.72-28L195.68-13.24L204.68-28L208.64-28Z M235.60 0.32Q232.44 0.32 229.50-0.66Q226.56-1.64 224.88-3.20L224.88-3.20L226.36-6.32Q227.96-4.88 230.46-3.98Q232.96-3.08 235.60-3.08L235.60-3.08Q239.08-3.08 240.80-4.26Q242.52-5.44 242.52-7.40L242.52-7.40Q242.52-8.84 241.58-9.74Q240.64-10.64 239.26-11.12Q237.88-11.60 235.36-12.20L235.36-12.20Q232.20-12.96 230.26-13.72Q228.32-14.48 226.94-16.06Q225.56-17.64 225.56-20.32L225.56-20.32Q225.56-22.56 226.74-24.36Q227.92-26.16 230.32-27.24Q232.72-28.32 236.28-28.32L236.28-28.32Q238.76-28.32 241.16-27.68Q243.56-27.04 245.28-25.84L245.28-25.84L243.96-22.64Q242.20-23.76 240.20-24.34Q238.20-24.92 236.28-24.92L236.28-24.92Q232.88-24.92 231.18-23.68Q229.48-22.44 229.48-20.48L229.48-20.48Q229.48-19.04 230.44-18.14Q231.40-17.24 232.82-16.74Q234.24-16.24 236.68-15.68L236.68-15.68Q239.84-14.92 241.76-14.16Q243.68-13.40 245.06-11.84Q246.44-10.28 246.44-7.64L246.44-7.64Q246.44-5.44 245.24-3.62Q244.04-1.80 241.60-0.74Q239.16 0.32 235.60 0.32L235.60 0.32Z M259.44 0L259.44-24.52L249.84-24.52L249.84-28L273-28L273-24.52L263.40-24.52L263.40 0L259.44 0Z M291.60 0.32Q287.36 0.32 283.96-1.54Q280.56-3.40 278.62-6.68Q276.68-9.96 276.68-14L276.68-14Q276.68-18.04 278.62-21.32Q280.56-24.60 283.96-26.46Q287.36-28.32 291.60-28.32L291.60-28.32Q295.80-28.32 299.20-26.46Q302.60-24.60 304.52-21.34Q306.44-18.08 306.44-14L306.44-14Q306.44-9.92 304.52-6.66Q302.60-3.40 299.20-1.54Q295.80 0.32 291.60 0.32L291.60 0.32ZM291.60-3.24Q294.68-3.24 297.14-4.64Q299.60-6.04 301.02-8.50Q302.44-10.96 302.44-14L302.44-14Q302.44-17.04 301.02-19.50Q299.60-21.96 297.14-23.36Q294.68-24.76 291.60-24.76L291.60-24.76Q288.52-24.76 286.02-23.36Q283.52-21.96 282.10-19.50Q280.68-17.04 280.68-14L280.68-14Q280.68-10.96 282.10-8.50Q283.52-6.04 286.02-4.64Q288.52-3.24 291.60-3.24L291.60-3.24Z M337.64 0L333.28 0L327.24-8.60Q326.12-8.52 325.48-8.52L325.48-8.52L318.56-8.52L318.56 0L314.56 0L314.56-28L325.48-28Q330.92-28 334.04-25.40Q337.16-22.80 337.16-18.24L337.16-18.24Q337.16-15 335.56-12.72Q333.96-10.44 331.00-9.40L331.00-9.40L337.64 0ZM325.36-11.92Q329.16-11.92 331.16-13.56Q333.16-15.20 333.16-18.24L333.16-18.24Q333.16-21.28 331.16-22.90Q329.16-24.52 325.36-24.52L325.36-24.52L318.56-24.52L318.56-11.92L325.36-11.92Z M349.64-3.48L365.96-3.48L365.96 0L345.64 0L345.64-28L365.40-28L365.40-24.52L349.64-24.52L349.64-15.92L363.68-15.92L363.68-12.52L349.64-12.52L349.64-3.48Z"/></g>
</svg>
</g><g opacity="1" transform="rotate(0 533.833 540.1557)">
<svg width="373.3002" height="70" x="533.833" y="540.1557" version="1.1" preserveAspectRatio="none" viewBox="-0.36 -28 149.32000000000002 28">
  <g transform="matrix(1 0 0 1 0 0)" class="companyName"><path id="id-D6z1nYkh5" d="M24.24 0L21.76-6L8.76-6L6.28 0L-0.36 0L12.12-28L18.52-28L31.04 0L24.24 0ZM10.84-10.92L19.72-10.92L15.28-21.64L10.84-10.92Z M38.04 0L38.04-28L44.52-28L44.52 0L38.04 0Z M55.24 0L55.24-28L67.96-28Q72.52-28 76.02-26.26Q79.52-24.52 81.46-21.36Q83.40-18.20 83.40-14L83.40-14Q83.40-9.80 81.46-6.64Q79.52-3.48 76.02-1.74Q72.52 0 67.96 0L67.96 0L55.24 0ZM61.72-5.32L67.64-5.32Q71.84-5.32 74.34-7.66Q76.84-10 76.84-14L76.84-14Q76.84-18 74.34-20.34Q71.84-22.68 67.64-22.68L67.64-22.68L61.72-22.68L61.72-5.32Z M98.80-5.20L114.04-5.20L114.04 0L92.36 0L92.36-28L113.52-28L113.52-22.80L98.80-22.80L98.80-16.72L111.80-16.72L111.80-11.68L98.80-11.68L98.80-5.20Z M142.56-28L148.96-28L148.96 0L143.64 0L129.68-17L129.68 0L123.28 0L123.28-28L128.64-28L142.56-11L142.56-28Z"/></g>
</svg>
</g><g opacity="1" transform="rotate(0 645.8231 355.502)">
<svg width="149.32" height="144.6537" x="645.8231" y="355.502" version="1.1" preserveAspectRatio="none" viewBox="20.00063705444336 22.50052261352539 159.99929809570312 154.9991455078125">
  <g transform="matrix(1 0 0 1 0 0)" ><g><path d="M83.723 132.766c.02-5.113-3.405-11.358-7.207-14.651-9.304-8.059-25.544-9.528-36.904-5.931-8.69 2.751-18.857 10.097-19.46 20.015-.002.028.001.054 0 .082-.254 4.562-.13 9.071-.046 13.693.099 5.463-.646 13.028 2.077 17.931 6.094 10.972 22.226 14.349 34.037 13.459 11.124-.838 25.65-6.433 27.378-19.41a12.86 12.86 0 0 0 .112-1.687c-.001-7.833.013-15.667.013-23.501z" data-color="1" class="icon1"></path><path d="M24.25 138.014c5.969 7.941 16.368 11.317 26.023 11.616 10.511.325 20.06-3.917 28.084-10.435 5.835-4.739-2.471-12.955-8.258-8.256-5.099 4.141-11.455 6.883-18.054 7.024-5.258.112-14.179-1.143-17.711-5.843-4.46-5.933-14.604-.12-10.084 5.894z" data-color="2" class="icon2"></path><path d="M179.057 104.154c-4.852-11.237-21.002-14.034-31.72-11.923-12.509 2.463-25.986 15.312-21.883 29.064 2.143 7.183 13.418 4.124 11.261-3.104-2.329-7.807 8.314-14.138 14.714-14.848 5.899-.655 14.905.593 17.543 6.705 2.972 6.878 13.036.939 10.085-5.894z" data-color="2" class="icon2"></path><path d="M126.043 122.689c5.142 11.023 20.188 11.847 30.468 9.396 12.031-2.869 25.89-12.506 23.135-26.536-1.447-7.366-12.705-4.248-11.261 3.104 1.422 7.239-11.812 11.675-16.604 12.522-5.041.891-13.106 1.083-15.653-4.378-3.174-6.805-13.245-.883-10.085 5.892z" data-color="1" class="icon1"></path><path d="M170.504 125.49c-1.202-4.479-4.427-8.359-8.998-9.847-14.615-4.756-25.955 13.538-15.418 23.911 3.419 3.366 8.62 4.734 13.303 3.688 8.104-1.81 13.289-9.643 11.113-17.752z" data-color="3" class="icon3"></path><path d="M136.022 30.939c-17.064-21.779-57.43 2.595-47.485 27.874 2.72 6.913 14.018 3.903 11.261-3.104-5.776-14.682 17.995-29.241 27.965-16.515 4.631 5.91 12.843-2.404 8.259-8.255z" data-color="2" class="icon2"></path><path d="M89.943 61.685c8.113 11.207 23.853 12.802 35.465 6.149 12.574-7.204 20.068-22.617 11.527-35.714-4.089-6.27-14.205-.426-10.084 5.893 5.004 7.673-.169 15.633-7.337 19.74-5.575 3.194-15.221 3.932-19.487-1.96-4.365-6.03-14.501-.209-10.084 5.892z" data-color="1" class="icon1"></path></g></g>
</svg>
</g></svg></svg>